<mxfile host="app.diagrams.net" modified="2024-09-05T16:57:18.175Z" agent="Mozilla/5.0 (X11; Linux x86_64; rv:129.0) Gecko/20100101 Firefox/129.0" version="24.6.4" etag="Wn-TynimzDdWQdBQq6oZ" type="github">
  <diagram name="Seite-1" id="qHvLG8WJNGEnCDqTlbSc">
    <mxGraphModel>
      <root>
        <mxCell id="0" />
        <mxCell id="1" parent="0" />
      </root>
    </mxGraphModel>
  </diagram>
</mxfile>
